<svg id="Layer_2" data-name="Layer 2" xmlns="http://www.w3.org/2000/svg" viewBox="0 0 120.68 139.35">
  <defs>
    <style>
      .cls-1 {
        fill: #cccccb;
      }

      .cls-2 {
        fill: #fff;
      }

      .cls-3 {
        fill: #00a651;
      }

      .cls-4 {
        fill: none;
        stroke: #231f20;
        stroke-miterlimit: 10;
        stroke-width: 6px;
      }
    </style>
  </defs>
  <g id="Layer_1-2" data-name="Layer 1">
    <g>
      <g>
        <polygon class="cls-4" points="87.97 53.72 60.34 37.77 32.71 53.72 32.71 85.63 60.34 101.58 87.97 85.63 87.97 53.72"/>
        <polygon class="cls-4" points="117.68 36.57 60.34 3.46 3 36.57 3 102.78 60.34 135.89 117.68 102.78 117.68 36.57"/>
        <line class="cls-4" x1="3" y1="36.57" x2="61.53" y2="69.68"/>
        <line class="cls-4" x1="117.68" y1="37.77" x2="60.34" y2="69.68"/>
        <line class="cls-4" x1="60.34" y1="101.58" x2="60.34" y2="69.68"/>
        <line class="cls-4" x1="60.34" y1="3.46" x2="60.34" y2="36.57"/>
        <line class="cls-4" x1="3" y1="101.58" x2="32.71" y2="85.63"/>
        <line class="cls-4" x1="60.34" y1="134.38" x2="60.34" y2="99.31"/>
        <line class="cls-4" x1="117.68" y1="102.78" x2="89.01" y2="84.87"/>
      </g>
      <path class="cls-1" d="M8.65,36.57c16.38-9.28,32.75-18.57,49.13-27.85.25,9.28.5,18.57.75,27.85-8.66,4.81-17.32,9.63-25.98,14.44-7.97-4.81-15.94-9.63-23.9-14.44Z"/>
      <path class="cls-1" d="M112.07,102.78c-16.22,9.35-32.44,18.69-48.67,28.04v-28.04c8.54-4.85,17.07-9.69,25.61-14.54,7.69,4.85,15.37,9.69,23.06,14.54Z"/>
      <path class="cls-1" d="M57.78,131.63L7.33,102.78c8.46-4.6,16.93-9.19,25.39-13.79,8.35,4.6,16.71,9.19,25.06,13.79v28.85Z"/>
      <path class="cls-1" d="M5.45,97.12v-55.95l24.19,13.5v29.26c-8.06,4.4-16.13,8.79-24.19,13.19Z"/>
      <path class="cls-1" d="M63.4,8.72c16.75,9.28,33.51,18.57,50.26,27.85-8.57,4.81-17.13,9.63-25.7,14.44-8.19-4.89-16.38-9.78-24.56-14.66V8.72Z"/>
      <path class="cls-1" d="M114.59,42.48v54.64c-7.87-4.83-15.75-9.67-23.62-14.5.04-9.1.09-18.19.13-27.29,7.83-4.28,15.66-8.57,23.49-12.85Z"/>
      <path class="cls-2" d="M60.34,66.06c-7.29-4.31-14.59-8.62-21.88-12.94,7.29-4.3,14.59-8.6,21.88-12.89l23.13,13.5c-7.71,4.11-15.42,8.22-23.13,12.33Z"/>
      <path class="cls-3" d="M85.16,83.93c-7.25,4.13-14.5,8.25-21.76,12.38v-24.76c7.25-4.06,14.5-8.13,21.76-12.19v24.57Z"/>
      <path class="cls-2" d="M35.46,83.93c7.44,4.4,14.88,8.79,22.32,13.19v-26.32c-7.44-4.13-14.88-8.25-22.32-12.38v25.51Z"/>
    </g>
  </g>
</svg>
